<mxfile host="app.diagrams.net" modified="2022-05-24T10:43:30.073Z" agent="5.0 (Windows NT 10.0; Win64; x64) AppleWebKit/537.36 (KHTML, like Gecko) Chrome/101.0.4951.67 Safari/537.36" etag="oR7JsRexgDUZxNGhDW11" version="18.1.1" type="github">
  <diagram id="Blw_q2kGAA6A8zxuSIhM" name="Page-1">
    <mxGraphModel dx="1022" dy="436" grid="1" gridSize="10" guides="1" tooltips="1" connect="1" arrows="1" fold="1" page="1" pageScale="1" pageWidth="827" pageHeight="1169" math="0" shadow="0">
      <root>
        <mxCell id="0" />
        <mxCell id="1" parent="0" />
        <mxCell id="ji9Vw7bPh48Ysu8miO9b-1" value="" style="shape=actor;whiteSpace=wrap;html=1;" vertex="1" parent="1">
          <mxGeometry x="130" y="100" width="40" height="60" as="geometry" />
        </mxCell>
        <mxCell id="ji9Vw7bPh48Ysu8miO9b-2" value="服务中心" style="rounded=0;whiteSpace=wrap;html=1;" vertex="1" parent="1">
          <mxGeometry x="250" y="130" width="120" height="40" as="geometry" />
        </mxCell>
        <mxCell id="ji9Vw7bPh48Ysu8miO9b-3" value="clickhouse集群" style="shape=datastore;whiteSpace=wrap;html=1;" vertex="1" parent="1">
          <mxGeometry x="500" y="265" width="60" height="80" as="geometry" />
        </mxCell>
        <mxCell id="ji9Vw7bPh48Ysu8miO9b-5" value="pg集群" style="shape=datastore;whiteSpace=wrap;html=1;" vertex="1" parent="1">
          <mxGeometry x="250" y="230" width="60" height="80" as="geometry" />
        </mxCell>
        <mxCell id="ji9Vw7bPh48Ysu8miO9b-6" value="360服务" style="shape=delay;whiteSpace=wrap;html=1;" vertex="1" parent="1">
          <mxGeometry x="480" y="130" width="80" height="40" as="geometry" />
        </mxCell>
        <mxCell id="ji9Vw7bPh48Ysu8miO9b-8" value="队列" style="shape=parallelogram;perimeter=parallelogramPerimeter;whiteSpace=wrap;html=1;fixedSize=1;" vertex="1" parent="1">
          <mxGeometry x="210" y="350" width="120" height="30" as="geometry" />
        </mxCell>
        <mxCell id="ji9Vw7bPh48Ysu8miO9b-9" value="数据同步" style="shape=hexagon;perimeter=hexagonPerimeter2;whiteSpace=wrap;html=1;fixedSize=1;" vertex="1" parent="1">
          <mxGeometry x="350" y="280" width="110" height="50" as="geometry" />
        </mxCell>
        <mxCell id="ji9Vw7bPh48Ysu8miO9b-10" value="" style="endArrow=classic;html=1;rounded=0;exitX=1;exitY=0.75;exitDx=0;exitDy=0;entryX=0.017;entryY=0.622;entryDx=0;entryDy=0;entryPerimeter=0;" edge="1" parent="1" source="ji9Vw7bPh48Ysu8miO9b-1" target="ji9Vw7bPh48Ysu8miO9b-2">
          <mxGeometry width="50" height="50" relative="1" as="geometry">
            <mxPoint x="390" y="250" as="sourcePoint" />
            <mxPoint x="440" y="200" as="targetPoint" />
          </mxGeometry>
        </mxCell>
        <mxCell id="ji9Vw7bPh48Ysu8miO9b-11" value="" style="endArrow=classic;html=1;rounded=0;exitX=1;exitY=0.5;exitDx=0;exitDy=0;entryX=0;entryY=0.5;entryDx=0;entryDy=0;" edge="1" parent="1" source="ji9Vw7bPh48Ysu8miO9b-2" target="ji9Vw7bPh48Ysu8miO9b-6">
          <mxGeometry width="50" height="50" relative="1" as="geometry">
            <mxPoint x="180" y="155" as="sourcePoint" />
            <mxPoint x="262.03999999999996" y="157.32000000000005" as="targetPoint" />
          </mxGeometry>
        </mxCell>
        <mxCell id="ji9Vw7bPh48Ysu8miO9b-12" value="" style="endArrow=classic;html=1;rounded=0;exitX=0.5;exitY=1;exitDx=0;exitDy=0;entryX=0.333;entryY=0.046;entryDx=0;entryDy=0;entryPerimeter=0;" edge="1" parent="1" source="ji9Vw7bPh48Ysu8miO9b-6" target="ji9Vw7bPh48Ysu8miO9b-3">
          <mxGeometry width="50" height="50" relative="1" as="geometry">
            <mxPoint x="190" y="165" as="sourcePoint" />
            <mxPoint x="272.03999999999996" y="167.32000000000005" as="targetPoint" />
          </mxGeometry>
        </mxCell>
        <mxCell id="ji9Vw7bPh48Ysu8miO9b-13" value="" style="endArrow=classic;html=1;rounded=0;exitX=0.5;exitY=1;exitDx=0;exitDy=0;entryX=0;entryY=0.5;entryDx=0;entryDy=0;" edge="1" parent="1" source="ji9Vw7bPh48Ysu8miO9b-5" target="ji9Vw7bPh48Ysu8miO9b-9">
          <mxGeometry width="50" height="50" relative="1" as="geometry">
            <mxPoint x="200" y="175" as="sourcePoint" />
            <mxPoint x="282.03999999999996" y="177.32000000000005" as="targetPoint" />
          </mxGeometry>
        </mxCell>
        <mxCell id="ji9Vw7bPh48Ysu8miO9b-14" value="" style="endArrow=classic;html=1;rounded=0;exitX=1;exitY=0.25;exitDx=0;exitDy=0;" edge="1" parent="1" source="ji9Vw7bPh48Ysu8miO9b-8">
          <mxGeometry width="50" height="50" relative="1" as="geometry">
            <mxPoint x="210" y="185" as="sourcePoint" />
            <mxPoint x="370" y="330" as="targetPoint" />
          </mxGeometry>
        </mxCell>
        <mxCell id="ji9Vw7bPh48Ysu8miO9b-15" value="" style="endArrow=classic;html=1;rounded=0;exitX=1;exitY=0.5;exitDx=0;exitDy=0;entryX=0;entryY=0.3;entryDx=0;entryDy=0;" edge="1" parent="1" source="ji9Vw7bPh48Ysu8miO9b-9" target="ji9Vw7bPh48Ysu8miO9b-3">
          <mxGeometry width="50" height="50" relative="1" as="geometry">
            <mxPoint x="220" y="195" as="sourcePoint" />
            <mxPoint x="302.03999999999996" y="197.32000000000005" as="targetPoint" />
          </mxGeometry>
        </mxCell>
      </root>
    </mxGraphModel>
  </diagram>
</mxfile>
